<svg width="26" height="26" viewBox="0 0 26 26" fill="none" xmlns="http://www.w3.org/2000/svg">
<circle cx="13" cy="13" r="11.5" transform="rotate(-180 13 13)" stroke="#A5A6A7" stroke-width="3"/>
<path d="M19.6875 13.7188L14.6875 18.7188C14.3125 19.125 13.6562 19.125 13.2812 18.7188C12.875 18.3438 12.875 17.6875 13.2812 17.3125L16.5625 14L7 14C6.4375 14 6 13.5625 6 13C6 12.4688 6.4375 12 7 12L16.5625 12L13.2812 8.71875C12.875 8.34375 12.875 7.6875 13.2812 7.3125C13.6562 6.90625 14.3125 6.90625 14.6875 7.3125L19.6875 12.3125C20.0938 12.6875 20.0938 13.3438 19.6875 13.7188Z" fill="#A5A6A7"/>
</svg>
