<svg width="26" height="26" viewBox="0 0 26 26" fill="none" xmlns="http://www.w3.org/2000/svg">
<circle cx="13" cy="13" r="11.5" stroke="#A5A6A7" stroke-width="3"/>
<path d="M6.3125 12.2812L11.3125 7.28125C11.6875 6.875 12.3438 6.875 12.7188 7.28125C13.125 7.65625 13.125 8.3125 12.7188 8.6875L9.4375 12L19 12C19.5625 12 20 12.4375 20 13C20 13.5312 19.5625 14 19 14L9.4375 14L12.7188 17.2812C13.125 17.6562 13.125 18.3125 12.7188 18.6875C12.3438 19.0938 11.6875 19.0938 11.3125 18.6875L6.3125 13.6875C5.90625 13.3125 5.90625 12.6562 6.3125 12.2812Z" fill="#A5A6A7"/>
</svg>
